<?xml version="1.0" encoding="utf-8"?>
<!-- Generator: Adobe Illustrator 27.3.1, SVG Export Plug-In . SVG Version: 6.00 Build 0)  -->
<svg version="1.1" id="Logo" xmlns="http://www.w3.org/2000/svg" xmlns:xlink="http://www.w3.org/1999/xlink" x="0px" y="0px"
	 viewBox="0 0 422 119" style="enable-background:new 0 0 422 119;" xml:space="preserve">
<style type="text/css">
	.st0{fill:#2A3880;}
	.st1{fill:#4E63A8;}
	.st2{display:none;fill:#2A3880;}
	.st3{display:none;fill:#4E63A8;}
	.st4{fill:#31449A;}
	.st5{font-family:'ArialRoundedMTBold';}
	.st6{font-size:51.0795px;}
	.st7{fill:none;stroke:#EF4136;stroke-width:8.7373;stroke-miterlimit:10;}
	.st8{fill:none;stroke:#FFFFFF;stroke-width:6.0489;stroke-miterlimit:10;}
	.st9{fill:#ED1C24;}
	.st10{fill:#9F1D20;}
	.st11{fill:#F15B40;}
	.st12{display:none;fill:#9F1D20;}
	.st13{display:none;fill:#F15B40;}
	.st14{fill:none;stroke:#31449A;stroke-width:8.7373;stroke-miterlimit:10;}
	.st15{fill:#FFFFFF;}
	.st16{font-size:32.8638px;}
</style>
<g id="Bucket_1_">
	<g id="_x31_x4_Blue">
		<polygon class="st0" points="195.6,35.9 195.6,50.5 234.8,50.5 234.8,35.9 		"/>
		<path class="st1" d="M234.8,35.9c-0.1,1-9.2,0.7-19.8,0.8c-10.5,0.1-17.8,0.5-19.3-0.6c-1.9-1.4,8.1-1.7,18.7-1.7
			C225.1,34.4,235,34.2,234.8,35.9z"/>
		<polygon class="st0" points="252,35.9 252,50.5 291.2,50.5 291.2,35.9 		"/>
		<path class="st1" d="M291.2,35.9c-0.1,1-9.2,0.7-19.8,0.8s-17.8,0.5-19.3-0.6c-1.9-1.4,8.1-1.7,18.7-1.7
			C281.5,34.4,291.4,34.2,291.2,35.9z"/>
		<polygon class="st0" points="310.3,35.9 310.3,50.5 349.5,50.5 349.5,35.9 		"/>
		<path class="st1" d="M349.5,35.9c-0.1,1-9.2,0.7-19.8,0.8s-17.8,0.5-19.3-0.6c-1.9-1.4,8.1-1.7,18.7-1.7
			C339.8,34.4,349.7,34.2,349.5,35.9z"/>
		<polygon class="st0" points="368.2,35.9 368.2,50.5 407.5,50.5 407.5,35.9 		"/>
		<path class="st1" d="M407.5,35.9c-0.1,1-9.2,0.7-19.8,0.8s-17.8,0.5-19.3-0.6c-1.9-1.4,8.1-1.7,18.7-1.7
			C397.8,34.4,407.6,34.2,407.5,35.9z"/>
		<polygon class="st2" points="426.2,35.9 426.2,50.5 465.5,50.5 465.4,35.9 		"/>
		<path class="st3" d="M465.4,35.9c-0.1,1-9.2,0.7-19.8,0.8s-17.8,0.5-19.3-0.6c-1.9-1.4,8.1-1.7,18.7-1.7
			C455.7,34.4,465.6,34.2,465.4,35.9z"/>
		<polygon class="st2" points="484.2,35.9 484.2,50.5 523.5,50.5 523.5,35.9 		"/>
		<path class="st3" d="M523.5,35.9c-0.1,1-9.2,0.7-19.8,0.8s-17.8,0.5-19.3-0.6c-1.9-1.4,8.1-1.7,18.7-1.7
			C513.7,34.4,523.6,34.2,523.5,35.9z"/>
		<rect x="181.5" y="50.2" class="st4" width="240.5" height="68.9"/>
	</g>
	<g id="Bucket">
		<text transform="matrix(1 0 0 1 193.3817 103.3851)" class="st5 st6">BUCKET</text>
		<text transform="matrix(1 0 0 1 193.3817 103.3851)" class="st7 st5 st6">BUCKET</text>
		<text transform="matrix(1 0 0 1 193.6141 103.4017)" class="st5 st6">BUCKET</text>
		<text transform="matrix(1 0 0 1 193.6141 103.4017)" class="st8 st5 st6">BUCKET</text>
		<text transform="matrix(1 0 0 1 193.7177 103.0819)" class="st9 st5 st6">BUCKET</text>
	</g>
</g>
<g id="Brick_1_">
	<g id="_x31_x3_Red">
		<polygon class="st10" points="14,35.9 14,50.5 53.3,50.5 53.2,35.9 		"/>
		<path class="st11" d="M53.2,35.9c-0.1,1-9.2,0.7-19.8,0.8s-17.8,0.5-19.3-0.6c-1.9-1.4,8.1-1.7,18.7-1.7
			C43.5,34.4,53.4,34.2,53.2,35.9z"/>
		<polygon class="st10" points="70.4,35.9 70.4,50.5 109.7,50.5 109.7,35.9 		"/>
		<path class="st11" d="M109.7,35.9c-0.1,1-9.2,0.7-19.8,0.8s-17.8,0.5-19.3-0.6c-1.9-1.4,8.1-1.7,18.7-1.7
			C99.9,34.4,109.8,34.2,109.7,35.9z"/>
		<polygon class="st10" points="128.8,35.9 128.8,50.5 168,50.5 168,35.9 		"/>
		<path class="st11" d="M168,35.9c-0.1,1-9.2,0.7-19.8,0.8c-10.5,0.1-17.8,0.5-19.3-0.6c-1.9-1.4,8.1-1.7,18.7-1.7
			C158.3,34.4,168.2,34.2,168,35.9z"/>
		<polygon class="st12" points="186.7,35.9 186.7,50.5 225.9,50.5 225.9,35.9 		"/>
		<path class="st13" d="M225.9,35.9c-0.1,1-9.2,0.7-19.8,0.8c-10.6,0.1-17.8,0.5-19.3-0.6c-1.9-1.4,8.1-1.7,18.7-1.7
			C216.2,34.4,226.1,34.2,225.9,35.9z"/>
		<rect y="50.2" class="st9" width="181.5" height="68.8"/>
	</g>
	<g id="Brick">
		<text transform="matrix(1 0 0 1 7.2899 103.3851)" class="st5 st6">BRICK</text>
		<text transform="matrix(1 0 0 1 7.2899 103.3851)" class="st14 st5 st6">BRICK</text>
		<text transform="matrix(1 0 0 1 7.5214 103.4017)" class="st5 st6">BRICK</text>
		<text transform="matrix(1 0 0 1 7.5214 103.4017)" class="st8 st5 st6">BRICK</text>
		<text transform="matrix(1 0 0 1 7.6259 103.0819)" class="st4 st5 st6">BRICK</text>
	</g>
</g>
<g id="The_1_">
	<g id="_x31_x2_Blue">
		<polygon class="st0" points="75.6,1.5 75.6,16.1 114.8,16.1 114.8,1.5 		"/>
		<path class="st1" d="M114.8,1.5c-0.1,1-9.2,0.7-19.8,0.8C84.5,2.4,77.2,2.7,75.8,1.7C73.8,0.3,83.9,0,94.4,0
			C105.1,0,114.9-0.2,114.8,1.5z"/>
		<polygon class="st0" points="132,1.5 132,16.1 171.2,16.1 171.2,1.5 		"/>
		<path class="st1" d="M171.2,1.5c-0.1,1-9.2,0.7-19.8,0.8c-10.6,0.1-17.8,0.5-19.3-0.6c-1.9-1.4,8.1-1.6,18.7-1.7
			C161.5,0,171.3-0.2,171.2,1.5z"/>
		<rect x="61.5" y="15.8" class="st4" width="120.3" height="34.4"/>
	</g>
	<g id="The">
		<text transform="matrix(1 0 0 1 89.5819 44.8539)" class="st15 st5 st16">THE</text>
	</g>
</g>
</svg>
