<?xml version="1.0" encoding="utf-8"?>
<!-- Generator: Adobe Illustrator 27.3.1, SVG Export Plug-In . SVG Version: 6.00 Build 0)  -->
<svg version="1.1" id="Logo" xmlns="http://www.w3.org/2000/svg" xmlns:xlink="http://www.w3.org/1999/xlink" x="0px" y="0px"
	 viewBox="0 0 478.55 156.87" style="enable-background:new 0 0 478.55 156.87;" xml:space="preserve">
<style type="text/css">
	.st0{fill:#2A3880;}
	.st1{fill:#4E63A8;}
	.st2{display:none;fill:#2A3880;}
	.st3{display:none;fill:#4E63A8;}
	.st4{fill:#31449A;}
	.st5{stroke:#EF4136;stroke-width:8.7373;stroke-miterlimit:10;}
	.st6{font-family:'ArialRoundedMTBold';}
	.st7{font-size:51.0795px;}
	.st8{stroke:#FFFFFF;stroke-width:6.0489;stroke-miterlimit:10;}
	.st9{fill:#ED1C24;}
	.st10{fill:#9F1D20;}
	.st11{fill:#F15B40;}
	.st12{display:none;fill:#9F1D20;}
	.st13{display:none;fill:#F15B40;}
	.st14{stroke:#31449A;stroke-width:8.7373;stroke-miterlimit:10;}
	.st15{fill:#FFFFFF;}
	.st16{font-size:32.8638px;}
</style>
<g id="Bucket_1_">
	<g id="_x31_x4_Blue">
		<polygon class="st0" points="225.64,53.51 225.64,68.12 264.88,68.12 264.86,53.47 		"/>
		<path class="st1" d="M264.86,53.47c-0.1,1.05-9.2,0.7-19.75,0.81c-10.55,0.11-17.82,0.46-19.26-0.57
			c-1.91-1.36,8.14-1.65,18.69-1.67C255.15,52.02,265.03,51.77,264.86,53.47z"/>
		<polygon class="st0" points="282.04,53.51 282.04,68.12 321.28,68.12 321.26,53.47 		"/>
		<path class="st1" d="M321.26,53.47c-0.1,1.05-9.2,0.7-19.75,0.81c-10.55,0.11-17.82,0.46-19.26-0.57
			c-1.91-1.36,8.14-1.65,18.69-1.67C311.55,52.02,321.43,51.77,321.26,53.47z"/>
		<polygon class="st0" points="340.39,53.51 340.39,68.12 379.62,68.12 379.6,53.47 		"/>
		<path class="st1" d="M379.6,53.47c-0.1,1.05-9.2,0.7-19.75,0.81c-10.55,0.11-17.82,0.46-19.26-0.57
			c-1.91-1.36,8.14-1.65,18.69-1.67C369.89,52.02,379.77,51.77,379.6,53.47z"/>
		<polygon class="st0" points="398.32,53.51 398.32,68.12 437.55,68.12 437.53,53.47 		"/>
		<path class="st1" d="M437.53,53.47c-0.1,1.05-9.2,0.7-19.75,0.81c-10.55,0.11-17.82,0.46-19.26-0.57
			c-1.91-1.36,8.14-1.65,18.69-1.67C427.82,52.02,437.7,51.77,437.53,53.47z"/>
		<polygon class="st2" points="456.31,53.51 456.31,68.12 495.54,68.12 495.52,53.47 		"/>
		<path class="st3" d="M495.52,53.47c-0.1,1.05-9.2,0.7-19.75,0.81c-10.55,0.11-17.82,0.46-19.26-0.57
			c-1.91-1.36,8.14-1.65,18.69-1.67C485.81,52.02,495.69,51.77,495.52,53.47z"/>
		<polygon class="st2" points="514.3,53.51 514.3,68.12 553.53,68.12 553.52,53.47 		"/>
		<path class="st3" d="M553.52,53.47c-0.1,1.05-9.2,0.7-19.75,0.81c-10.55,0.11-17.82,0.46-19.26-0.57
			c-1.91-1.36,8.14-1.65,18.69-1.67C543.81,52.02,553.68,51.77,553.52,53.47z"/>
		<rect x="211.61" y="67.78" class="st4" width="240.51" height="68.85"/>
	</g>
	<g id="Bucket">
		<text transform="matrix(1 0 0 1 223.4517 120.981)" class="st5 st6 st7">BUCKET</text>
		<text transform="matrix(1 0 0 1 223.6841 120.9976)" class="st8 st6 st7">BUCKET</text>
		<text transform="matrix(1 0 0 1 223.7877 120.6778)" class="st9 st6 st7">BUCKET</text>
	</g>
</g>
<g id="Brick_1_">
	<g id="_x31_x3_Red">
		<polygon class="st10" points="44.1,53.49 44.1,68.11 83.34,68.1 83.32,53.45 		"/>
		<path class="st11" d="M83.32,53.45c-0.1,1.05-9.2,0.7-19.75,0.81c-10.55,0.11-17.82,0.46-19.26-0.57
			c-1.91-1.36,8.14-1.65,18.69-1.67C73.61,52,83.49,51.75,83.32,53.45z"/>
		<polygon class="st10" points="100.5,53.49 100.5,68.11 139.74,68.1 139.72,53.45 		"/>
		<path class="st11" d="M139.72,53.45c-0.1,1.05-9.2,0.7-19.75,0.81c-10.55,0.11-17.82,0.46-19.26-0.57
			c-1.91-1.36,8.14-1.65,18.69-1.67C130.01,52,139.89,51.75,139.72,53.45z"/>
		<polygon class="st10" points="158.85,53.49 158.85,68.11 198.08,68.1 198.06,53.45 		"/>
		<path class="st11" d="M198.06,53.45c-0.1,1.05-9.2,0.7-19.75,0.81c-10.55,0.11-17.82,0.46-19.26-0.57
			c-1.91-1.36,8.14-1.65,18.69-1.67C188.35,52,198.23,51.75,198.06,53.45z"/>
		<polygon class="st12" points="216.77,53.49 216.77,68.11 256.01,68.1 255.99,53.45 		"/>
		<path class="st13" d="M255.99,53.45c-0.1,1.05-9.2,0.7-19.75,0.81c-10.55,0.11-17.82,0.46-19.26-0.57
			c-1.91-1.36,8.14-1.65,18.69-1.67C246.28,52,256.16,51.75,255.99,53.45z"/>
		<rect x="30.07" y="67.77" class="st9" width="181.54" height="68.85"/>
	</g>
	<g id="Brick">
		<text transform="matrix(1 0 0 1 37.3599 120.981)" class="st14 st6 st7">BRICK</text>
		<text transform="matrix(1 0 0 1 37.5914 120.9976)" class="st8 st6 st7">BRICK</text>
		<text transform="matrix(1 0 0 1 37.6959 120.6778)" class="st4 st6 st7">BRICK</text>
	</g>
</g>
<g id="The_1_">
	<g id="_x31_x2_Blue">
		<polygon class="st0" points="105.62,19.09 105.62,33.71 144.85,33.7 144.83,19.05 		"/>
		<path class="st1" d="M144.83,19.05c-0.1,1.05-9.2,0.7-19.75,0.81c-10.55,0.11-17.82,0.46-19.26-0.57
			c-1.91-1.36,8.14-1.65,18.69-1.67C135.13,17.6,145,17.35,144.83,19.05z"/>
		<polygon class="st0" points="162.02,19.09 162.02,33.71 201.25,33.7 201.23,19.05 		"/>
		<path class="st1" d="M201.23,19.05c-0.1,1.05-9.2,0.7-19.75,0.81c-10.55,0.11-17.82,0.46-19.26-0.57
			c-1.91-1.36,8.14-1.65,18.69-1.67C191.52,17.6,201.4,17.35,201.23,19.05z"/>
		<rect x="91.59" y="33.37" class="st4" width="120.26" height="34.43"/>
	</g>
	<g id="The">
		<text transform="matrix(1 0 0 1 119.6519 62.4498)" class="st15 st6 st16">THE</text>
	</g>
</g>
</svg>
